<?xml version="1.0" encoding="UTF-8"?>
<svg version="1.1" xmlns="http://www.w3.org/2000/svg" width="256" height="256">
<path d="M0 0 C14.01721588 9.33350638 23.97085468 24.20156056 27.42163086 40.69335938 C29.40151238 53.31219606 29.11121157 67.50101921 23.81640625 79.20947266 C23.34203125 80.28068359 22.86765625 81.35189453 22.37890625 82.45556641 C14.34856639 98.84440906 0.98598798 110.03119998 -16.18359375 116.20947266 C-33.60183722 121.26582178 -52.77725401 119.2495237 -68.60131836 110.66967773 C-84.04490388 101.72907346 -94.07252256 87.56326684 -99.30078125 70.58056641 C-103.37904977 53.39198897 -100.28313242 34.97858889 -91.54296875 19.89306641 C-81.91142203 4.27643418 -67.59470783 -4.32234663 -50.30664062 -9.3347168 C-32.96980297 -13.05687364 -14.8364328 -9.14887544 0 0 Z M-14.18359375 3.20947266 C-14.65780762 3.56775146 -15.13202148 3.92603027 -15.62060547 4.29516602 C-17.76534851 5.91410278 -19.91194466 7.53056424 -22.05859375 9.14697266 C-22.80496094 9.7109375 -23.55132812 10.27490234 -24.3203125 10.85595703 C-25.39345703 11.66323242 -25.39345703 11.66323242 -26.48828125 12.48681641 C-27.47803955 13.23306274 -27.47803955 13.23306274 -28.48779297 13.99438477 C-30.18359375 15.20947266 -30.18359375 15.20947266 -32.18359375 16.20947266 C-33.37016587 20.58350323 -33.59306809 23.86848745 -32.18359375 28.20947266 C-27.83522782 32.7621501 -22.23331941 35.9827016 -16.85766602 39.18481445 C-15.18359375 40.20947266 -15.18359375 40.20947266 -14.18359375 41.20947266 C-11.43664314 40.98056011 -8.87211218 40.75766347 -6.18359375 40.20947266 C-5.34054688 40.05865234 -4.4975 39.90783203 -3.62890625 39.75244141 C0.38003794 37.22283605 0.93511107 33.23476043 2.19140625 28.83447266 C2.46339844 27.97080078 2.73539063 27.10712891 3.015625 26.21728516 C4.78214355 20.73832707 4.78214355 20.73832707 3.81640625 15.20947266 C1.80116635 13.11772209 1.80116635 13.11772209 -0.74609375 11.20947266 C-1.98552734 10.21947266 -1.98552734 10.21947266 -3.25 9.20947266 C-6.73996647 6.8301613 -10.36928469 5.00640949 -14.18359375 3.20947266 Z M-59.18359375 3.20947266 C-65.81280485 6.65050595 -71.68228456 11.19716873 -77.18359375 16.20947266 C-76.56958989 19.22832498 -75.89676532 22.21333232 -75.18359375 25.20947266 C-74.93867188 26.32708984 -74.69375 27.44470703 -74.44140625 28.59619141 C-73.09071993 34.84298212 -73.09071993 34.84298212 -69.3203125 39.70556641 C-65.62378819 41.16050724 -62.14096757 41.47339615 -58.18359375 41.20947266 C-56.12098341 40.1654319 -56.12098341 40.1654319 -54.265625 38.61962891 C-53.56888672 38.08273438 -52.87214844 37.54583984 -52.15429688 36.99267578 C-51.08598633 36.14092773 -51.08598633 36.14092773 -49.99609375 35.27197266 C-48.56592451 34.15763776 -47.13497173 33.04430753 -45.703125 31.93212891 C-44.76110229 31.18588257 -44.76110229 31.18588257 -43.80004883 30.42456055 C-42.18359375 29.20947266 -42.18359375 29.20947266 -40.18359375 28.20947266 C-38.99720327 23.83611167 -38.77887999 20.55087024 -40.18359375 16.20947266 C-45.35211282 10.74481642 -52.48310014 6.55971946 -59.18359375 3.20947266 Z M-78.1953125 49.83447266 C-79.33129883 50.64658203 -79.33129883 50.64658203 -80.49023438 51.47509766 C-81.27591797 52.04744141 -82.06160156 52.61978516 -82.87109375 53.20947266 C-83.66837891 53.78181641 -84.46566406 54.35416016 -85.28710938 54.94384766 C-87.25722188 56.35949736 -89.22238432 57.78152737 -91.18359375 59.20947266 C-90.74846177 64.93762794 -89.86263529 69.83788188 -87.68359375 75.20947266 C-87.24015625 76.32322266 -86.79671875 77.43697266 -86.33984375 78.58447266 C-85.42662179 81.0871361 -85.42662179 81.0871361 -84.18359375 82.20947266 C-80.63230381 82.60089314 -77.06588459 82.62777369 -73.49609375 82.70947266 C-72.50158203 82.76361328 -71.50707031 82.81775391 -70.48242188 82.87353516 C-64.98513624 83.02922849 -64.98513624 83.02922849 -60.14477539 80.75415039 C-57.12421557 77.41751135 -56.21640309 75.89846884 -55.99609375 71.27197266 C-56.34055063 69.57324085 -56.74730485 67.88696849 -57.18359375 66.20947266 C-57.39121338 65.26031982 -57.39121338 65.26031982 -57.60302734 64.29199219 C-59.27965796 55.42791114 -59.27965796 55.42791114 -64.41015625 48.51416016 C-69.68133553 46.74565375 -73.62448654 46.53522986 -78.1953125 49.83447266 Z M-10.18359375 50.20947266 C-12.14771755 53.31025247 -12.91998692 56.53246592 -13.74609375 60.08447266 C-13.99166016 60.98294922 -14.23722656 61.88142578 -14.49023438 62.80712891 C-16.58600032 70.04069457 -16.58600032 70.04069457 -15.27099609 77.21362305 C-12.98785951 80.16777015 -11.35815879 81.95316723 -7.62597656 82.76757812 C-4.65733973 82.89871248 -1.77473544 82.82111388 1.19140625 82.64697266 C2.21363281 82.61539063 3.23585938 82.58380859 4.2890625 82.55126953 C6.80116059 82.4690981 9.30727159 82.35431613 11.81640625 82.20947266 C14.96653249 76.26745888 17.57840106 70.84968229 18.81640625 64.20947266 C19.0484375 63.01837891 19.0484375 63.01837891 19.28515625 61.80322266 C19.02919268 58.85350486 19.02919268 58.85350486 15.859375 56.60400391 C14.58584694 55.72621241 13.30002715 54.86604745 12.00390625 54.02197266 C11.04000977 53.36551758 11.04000977 53.36551758 10.05664062 52.69580078 C8.32015325 51.51714873 6.57159519 50.36000573 4.81640625 49.20947266 C3.82640625 48.54947266 2.83640625 47.88947266 1.81640625 47.20947266 C-2.61240489 47.20947266 -6.35522084 47.89644239 -10.18359375 50.20947266 Z M-53.32861328 84.02709961 C-54.67865925 87.47314784 -54.21634811 89.69889319 -53.18359375 93.20947266 C-53.0045752 93.84852539 -52.82555664 94.48757812 -52.64111328 95.14599609 C-52.06054401 97.14589801 -51.41451208 99.11234627 -50.74609375 101.08447266 C-50.52888672 101.75994141 -50.31167969 102.43541016 -50.08789062 103.13134766 C-49.05082345 106.88569873 -49.05082345 106.88569873 -46.18359375 109.20947266 C-39.281862 110.27127754 -30.64107087 111.43821122 -24.18359375 108.20947266 C-22.85963626 105.3962157 -21.97234318 102.40889446 -20.99609375 99.45947266 C-20.71056641 98.64736328 -20.42503906 97.83525391 -20.13085938 96.99853516 C-18.35216086 91.68407828 -17.7341943 88.63378212 -19.95458984 83.38793945 C-21.16009399 81.15964302 -22.1931711 79.79061965 -24.18359375 78.20947266 C-28.18015999 77.13778051 -32.00423364 77.18563946 -36.12109375 77.27197266 C-37.72887695 77.21879883 -37.72887695 77.21879883 -39.36914062 77.16455078 C-46.07045516 77.20189557 -49.75400124 78.11736338 -53.32861328 84.02709961 Z " fill="#FFFFFF" transform="translate(204.18359375,73.79052734375)"/>
<path d="M0 0 C4.64911265 2.10047017 7.64641934 5.20529605 11.17578125 8.83203125 C11.88355713 9.55334229 12.59133301 10.27465332 13.32055664 11.01782227 C24.83961834 22.99135778 42.36328125 45.8653393 42.36328125 63.51953125 C44.96711463 64.10438271 47.57131928 64.68748969 50.17578125 65.26953125 C51.37267578 65.53805908 51.37267578 65.53805908 52.59375 65.81201172 C56.96091548 66.78561072 61.33185084 67.72471993 65.71875 68.60546875 C66.57944092 68.77981445 67.44013184 68.95416016 68.3269043 69.13378906 C69.99767405 69.47022667 71.66970598 69.80046491 73.34301758 70.12402344 C79.1413383 71.2975883 79.1413383 71.2975883 81.36328125 73.51953125 C81.61328125 76.01953125 81.61328125 76.01953125 81.36328125 78.51953125 C79.36328125 80.51953125 79.36328125 80.51953125 77.17260742 80.58618164 C70.19898313 79.86016911 63.48989086 78.59517073 56.67578125 76.95703125 C55.1762793 76.60608398 55.1762793 76.60608398 53.64648438 76.24804688 C51.21710697 75.67847992 48.78952992 75.10225473 46.36328125 74.51953125 C46.48445313 75.18782959 46.605625 75.85612793 46.73046875 76.54467773 C49.126135 89.97077462 51.03927475 102.86821804 50.36328125 116.51953125 C51.97009766 116.50212891 51.97009766 116.50212891 53.609375 116.484375 C55.00650868 116.47499826 56.40364424 116.46589794 57.80078125 116.45703125 C58.50783203 116.44865234 59.21488281 116.44027344 59.94335938 116.43164062 C61.75021684 116.42299537 63.55715728 116.46733114 65.36328125 116.51953125 C66.36328125 117.51953125 66.36328125 117.51953125 66.48828125 120.51953125 C66.36328125 123.51953125 66.36328125 123.51953125 65.36328125 124.51953125 C62.83278723 124.59266692 60.33023288 124.61200652 57.80078125 124.58203125 C56.7344043 124.57526367 56.7344043 124.57526367 55.64648438 124.56835938 C53.88538112 124.55653989 52.12432089 124.53860388 50.36328125 124.51953125 C50.4096875 125.44507813 50.45609375 126.370625 50.50390625 127.32421875 C50.94758682 140.9691295 48.68935922 154.10901125 46.36328125 167.51953125 C47.42857056 167.24689453 47.42857056 167.24689453 48.51538086 166.96875 C51.77449206 166.14130863 55.03749211 165.33033169 58.30078125 164.51953125 C59.41775391 164.23335937 60.53472656 163.9471875 61.68554688 163.65234375 C68.0839418 162.07619955 73.77029148 161.07954027 80.36328125 161.51953125 C81.36328125 162.51953125 81.36328125 162.51953125 81.61328125 165.45703125 C81.53078125 166.46765625 81.44828125 167.47828125 81.36328125 168.51953125 C78.21856539 170.61600849 76.14044597 171.16785389 72.48046875 171.95703125 C71.31257813 172.21226562 70.1446875 172.4675 68.94140625 172.73046875 C67.719375 172.99085938 66.49734375 173.25125 65.23828125 173.51953125 C64.03945312 173.77992188 62.840625 174.0403125 61.60546875 174.30859375 C59.26713354 174.81625863 56.9282806 175.32154581 54.58886719 175.82421875 C50.50930858 176.70361497 46.43591483 177.60866266 42.36328125 178.51953125 C42.1945752 179.1333667 42.02586914 179.74720215 41.85205078 180.37963867 C40.1137639 186.46248159 37.96859854 192.12897975 35.23828125 197.83203125 C34.64950195 199.06360962 34.64950195 199.06360962 34.04882812 200.32006836 C28.45940718 211.7139737 21.1395063 221.3643673 12.36328125 230.51953125 C11.58597656 231.36 10.80867188 232.20046875 10.0078125 233.06640625 C9.23824219 233.8759375 8.46867187 234.68546875 7.67578125 235.51953125 C6.99128906 236.24140625 6.30679688 236.96328125 5.6015625 237.70703125 C2.92453484 239.8748163 0.72570468 240.79933346 -2.63671875 241.51953125 C-5.63671875 239.51953125 -5.63671875 239.51953125 -6.63671875 237.70703125 C-6.63671875 235.51953125 -6.63671875 235.51953125 -4.4609375 233.19140625 C-2.67244942 231.49939263 -0.88345064 229.80791852 0.90625 228.1171875 C13.98340341 215.58089125 23.76000619 200.4076981 30.36328125 183.51953125 C21.76771909 185.58875241 13.76213388 188.61740784 5.61328125 192.01953125 C4.43378906 192.50550781 3.25429688 192.99148437 2.0390625 193.4921875 C-2.57979059 195.39895813 -7.18984845 197.31303275 -11.75390625 199.34765625 C-14.93784114 200.64193872 -17.23082531 200.84390205 -20.63671875 200.51953125 C-21.63671875 199.51953125 -21.63671875 199.51953125 -21.69921875 196.45703125 C-21.67859375 195.48765625 -21.65796875 194.51828125 -21.63671875 193.51953125 C19.0448455 171.51953125 19.0448455 171.51953125 35.36328125 171.51953125 C35.46640625 170.50890625 35.56953125 169.49828125 35.67578125 168.45703125 C36.14645042 164.5773725 36.95145561 160.8329176 37.80078125 157.01953125 C39.24439612 150.03117554 39.91579319 143.09890557 40.4609375 135.98828125 C40.54927856 134.88194336 40.63761963 133.77560547 40.7286377 132.63574219 C40.94408333 129.93062144 41.15553734 127.22525249 41.36328125 124.51953125 C40.58876114 124.52175186 39.81424103 124.52397247 39.01625061 124.52626038 C31.73207104 124.54626259 24.4479047 124.56150502 17.16370487 124.57134342 C13.41845088 124.57657139 9.67321949 124.58366747 5.92797852 124.5949707 C2.31646438 124.60580266 -1.29502796 124.61180874 -4.90655708 124.61440849 C-6.28732204 124.61626219 -7.66808575 124.61988174 -9.04884148 124.62526131 C-10.97647827 124.63247572 -12.90413682 124.63293934 -14.83178711 124.63305664 C-15.93098984 124.63527725 -17.03019257 124.63749786 -18.16270447 124.63978577 C-20.63671875 124.51953125 -20.63671875 124.51953125 -21.63671875 123.51953125 C-21.76171875 120.51953125 -21.76171875 120.51953125 -21.63671875 117.51953125 C-20.63671875 116.51953125 -20.63671875 116.51953125 -18.16270447 116.39927673 C-17.06350174 116.40149734 -15.96429901 116.40371796 -14.83178711 116.40600586 C-13.59057602 116.40608139 -12.34936493 116.40615692 -11.07054138 116.40623474 C-9.70588135 116.41134214 -8.34122173 116.41655815 -6.9765625 116.421875 C-5.58793692 116.42373925 -4.19931068 116.42516312 -2.8106842 116.42616272 C0.8504924 116.42998738 4.51162955 116.43981722 8.17279053 116.4508667 C11.90620388 116.46108193 15.63962359 116.46566058 19.37304688 116.47070312 C26.70314302 116.48143954 34.03320661 116.49851534 41.36328125 116.51953125 C41.08474633 112.74393959 40.79160028 108.96961072 40.49609375 105.1953125 C40.4185083 104.14122192 40.34092285 103.08713135 40.26098633 102.00109863 C39.58596368 93.51766188 38.11192514 85.39846743 36.16796875 77.125 C35.36328125 73.51953125 35.36328125 73.51953125 35.36328125 70.51953125 C34.08453125 70.25914063 32.80578125 69.99875 31.48828125 69.73046875 C17.29864793 66.55938455 3.72718821 60.47017354 -9.38671875 54.33203125 C-10.47597656 53.8333252 -11.56523437 53.33461914 -12.6875 52.82080078 C-13.69683594 52.33595215 -14.70617187 51.85110352 -15.74609375 51.3515625 C-16.64295898 50.92593018 -17.53982422 50.50029785 -18.46386719 50.06176758 C-21.16808132 48.14238323 -21.90758706 46.73465183 -22.63671875 43.51953125 C-21.97671875 42.52953125 -21.31671875 41.53953125 -20.63671875 40.51953125 C-15.03037625 39.58514083 -11.08355216 41.96452684 -6.26171875 44.45703125 C5.85876982 50.47848997 18.52906599 55.2414595 31.36328125 59.51953125 C22.94733817 40.63448022 13.3375329 23.3895357 -2.76171875 9.95703125 C-5.63671875 7.51953125 -5.63671875 7.51953125 -6.63671875 4.51953125 C-5.19974803 0.76130013 -4.21643472 -0.7683281 0 0 Z " fill="#FFFFFF" transform="translate(29.63671875,7.48046875)"/>
<path d="M0 0 C3.41724272 0.2152958 5.21835593 0.86916484 8.2043457 2.47802734 C9.13867432 2.96819336 10.07300293 3.45835938 11.03564453 3.96337891 C12.03362061 4.49672852 13.03159668 5.03007812 14.05981445 5.57958984 C38.39360871 18.11523712 63.68940316 26.5696096 90.29711914 32.84228516 C107.22743675 36.85556581 120.57108002 42.18884475 134.24731445 53.20458984 C135.22700195 53.97802734 136.20668945 54.75146484 137.21606445 55.54833984 C152.10552674 68.06697446 161.43715792 88.28548734 164.24731445 107.20458984 C165.97729867 134.55265755 161.32840615 157.65208171 142.95141602 178.68798828 C128.33581154 194.95390802 110.18579851 203.20211711 89.17727661 208.04541016 C61.37618218 214.48837057 35.00989786 223.57235252 9.81665039 237.10644531 C5.47733487 239.37542157 2.28654508 240.89068228 -2.75268555 240.20458984 C-3.75268555 239.20458984 -3.75268555 239.20458984 -4.44018555 236.51708984 C-3.75268555 233.20458984 -3.75268555 233.20458984 -1.90673828 231.76855469 C4.55988314 228.06330012 11.13192267 224.69610048 17.87231445 221.51708984 C19.34958008 220.80842773 19.34958008 220.80842773 20.85668945 220.08544922 C25.09924297 218.06882212 29.20195732 216.18063879 33.6965332 214.80615234 C38.06669963 212.83501017 39.51712257 210.45066814 41.43481445 206.26708984 C41.76231689 205.60628418 42.08981934 204.94547852 42.42724609 204.26464844 C44.95855209 199.07743364 47.22472266 193.77050119 49.3371582 188.39990234 C50.24731445 186.20458984 50.24731445 186.20458984 51.24731445 185.20458984 C53.68481445 185.01708984 53.68481445 185.01708984 56.24731445 185.20458984 C57.23731445 186.19458984 57.23731445 186.19458984 58.24731445 187.20458984 C58.11172714 194.52630484 55.22736299 200.6066964 52.24731445 207.20458984 C52.81877197 207.04240967 53.39022949 206.88022949 53.97900391 206.71313477 C59.2572409 205.24297296 64.55221254 203.87240267 69.87814331 202.587677 C73.20823363 201.78377202 76.53447459 200.96442663 79.86083984 200.14526367 C81.56632438 199.72904327 83.27336087 199.31912762 84.98193359 198.91577148 C108.66096154 193.3081212 129.72965992 182.78887521 143.09008789 161.62451172 C146.47274046 156.05692055 149.11760195 150.36822837 151.24731445 144.20458984 C151.56571289 143.35638672 151.88411133 142.50818359 152.2121582 141.63427734 C158.3840816 122.12303564 154.5006263 100.54221033 145.38208008 82.77880859 C142.52233363 77.45957487 139.32073926 72.68265949 135.24731445 68.20458984 C134.63243164 67.52138672 134.01754883 66.83818359 133.3840332 66.13427734 C119.42158678 51.41634785 101.66001753 45.55246901 82.49731445 40.95458984 C80.77951003 40.53155573 79.06205955 40.10708169 77.3449707 39.68115234 C74.86537202 39.06671632 72.38551875 38.4536447 69.90393066 37.84729004 C63.98938363 36.40197925 58.10635483 34.86205976 52.24731445 33.20458984 C52.68043945 34.22939453 53.11356445 35.25419922 53.55981445 36.31005859 C54.12277451 37.6705454 54.68524901 39.0312332 55.24731445 40.39208984 C55.53348633 41.065625 55.8196582 41.73916016 56.11450195 42.43310547 C57.62348769 46.11574922 58.83174878 49.20852015 58.24731445 53.20458984 C57.58731445 53.86458984 56.92731445 54.52458984 56.24731445 55.20458984 C53.27075195 55.14990234 53.27075195 55.14990234 50.24731445 54.20458984 C48.84887695 52.00927734 48.84887695 52.00927734 47.87231445 49.07958984 C47.4546582 47.99935547 47.03700195 46.91912109 46.60668945 45.80615234 C45.91486565 43.97321687 45.22390201 42.13982425 44.55786133 40.29736328 C42.12806755 33.84707073 39.624973 28.10525501 33.2434082 24.86083984 C30.07441052 23.48695183 26.84428176 22.33128165 23.5871582 21.18505859 C17.63832443 19.09024229 12.17400659 16.23853883 6.62231445 13.26708984 C5.70361572 12.78143555 4.78491699 12.29578125 3.83837891 11.79541016 C-2.5840855 8.37318989 -2.5840855 8.37318989 -3.75268555 7.20458984 C-3.87768555 4.20458984 -3.87768555 4.20458984 -3.75268555 1.20458984 C-2.75268555 0.20458984 -2.75268555 0.20458984 0 0 Z " fill="#FFFFFF" transform="translate(83.752685546875,7.79541015625)"/>
</svg>
